<svg width="37" height="37" viewBox="0 0 37 37" fill="none" xmlns="http://www.w3.org/2000/svg">
<rect width="37" height="37" fill="#1E1E1E"/>
<g id="&#234;&#179;&#132;&#236;&#162;&#140; &#235;&#130;&#152;&#235;&#136;&#160;&#235;&#132;&#163;&#234;&#184;&#176;">
<rect width="375" height="1855" transform="translate(-33 -428)" fill="#F7F7F7"/>
<g id="Group 2085664948">
<g id="Group 2085664934">
<circle id="Ellipse 1" cx="18.5" cy="18.5" r="18.5" fill="#0046FF"/>
<path id="Vector" d="M27.9985 18.3232C27.9981 18.2891 27.9972 18.2549 27.9963 18.2207C27.995 18.1727 27.9929 18.1251 27.9907 18.077C27.9894 18.045 27.9881 18.0134 27.9864 17.9814C27.9838 17.9321 27.9803 17.8832 27.9769 17.8343C27.9747 17.804 27.973 17.7733 27.9704 17.743C27.9665 17.6936 27.9617 17.6447 27.9574 17.5958C27.9544 17.5656 27.9518 17.5353 27.9487 17.505C27.9436 17.4569 27.9379 17.4093 27.9323 17.3617C27.9284 17.3306 27.9249 17.299 27.921 17.2678C27.915 17.2224 27.9085 17.177 27.902 17.1315C27.8972 17.0987 27.8929 17.0653 27.8877 17.0325C27.8812 16.9905 27.8739 16.9485 27.867 16.9065C27.8609 16.8706 27.8548 16.8343 27.8483 16.7984C27.8414 16.7611 27.8341 16.7244 27.8271 16.6876C27.8194 16.6473 27.8116 16.6067 27.8033 16.5664C27.7968 16.5361 27.7899 16.5058 27.7834 16.4756C27.7735 16.4293 27.7635 16.3825 27.7527 16.3362C27.7479 16.3154 27.7428 16.2951 27.7376 16.2748C27.7241 16.2194 27.7107 16.1636 27.6965 16.1086C27.6952 16.1034 27.6934 16.0982 27.6921 16.0926C27.4628 15.2155 27.1109 14.386 26.6553 13.6253C26.6531 13.6214 26.6509 13.6179 26.6488 13.614C26.6141 13.5565 26.5791 13.4994 26.5432 13.4427C26.5384 13.4353 26.5341 13.428 26.5293 13.4206C26.4956 13.3674 26.4614 13.3146 26.4263 13.2622C26.419 13.2514 26.4121 13.2406 26.4051 13.2298C26.3722 13.1804 26.3389 13.132 26.3052 13.0835C26.2956 13.0697 26.2861 13.0558 26.2766 13.042C26.2446 12.9965 26.2121 12.9515 26.1797 12.907C26.1676 12.8905 26.1554 12.8736 26.1433 12.8572C26.1126 12.8152 26.081 12.7741 26.0494 12.7326C26.0347 12.7135 26.0204 12.6945 26.0057 12.6755C25.9758 12.637 25.9456 12.5989 25.9153 12.5612C25.898 12.5396 25.8811 12.5184 25.8638 12.4972C25.8348 12.4617 25.8058 12.4271 25.7763 12.392C25.7564 12.3687 25.737 12.3449 25.7171 12.3219C25.6894 12.2895 25.6612 12.2579 25.6335 12.2259C25.611 12.2003 25.589 12.1752 25.566 12.1502C25.5396 12.1207 25.5128 12.0917 25.486 12.0623C25.4613 12.0355 25.4362 12.0082 25.4111 11.9818C25.3856 11.955 25.36 11.9282 25.3345 11.9018C25.3072 11.8736 25.2796 11.8451 25.2519 11.8174C25.2276 11.7927 25.203 11.7685 25.1787 11.7443C25.1489 11.7148 25.119 11.6854 25.0887 11.6564C25.0653 11.6339 25.042 11.6119 25.0186 11.5898C24.9866 11.5595 24.9541 11.5296 24.9217 11.4998C24.8996 11.4794 24.8771 11.4591 24.8546 11.4388C24.8204 11.408 24.7858 11.3773 24.7512 11.347C24.7295 11.3284 24.7083 11.3094 24.6867 11.2912C24.6503 11.2601 24.614 11.2293 24.5776 11.199C24.5569 11.1817 24.5357 11.1644 24.5149 11.1471C24.4772 11.116 24.4387 11.0857 24.4006 11.055C24.3803 11.0385 24.3595 11.0225 24.3392 11.0065C24.2998 10.9758 24.2604 10.9455 24.2206 10.9156C24.2003 10.9 24.1795 10.8849 24.1592 10.8693C24.1189 10.8395 24.0787 10.81 24.038 10.7806C24.0172 10.7659 23.9965 10.7508 23.9757 10.736C23.935 10.7071 23.8939 10.6789 23.8524 10.6508C23.8311 10.6361 23.8099 10.6218 23.7883 10.6071C23.7472 10.5794 23.7056 10.5526 23.6645 10.5253C23.642 10.511 23.62 10.4963 23.5975 10.482C23.5568 10.4561 23.5157 10.4305 23.4746 10.4055C23.4508 10.3907 23.427 10.376 23.4027 10.3613C23.3629 10.3375 23.3231 10.3137 23.2829 10.2904C23.2569 10.2752 23.2309 10.2596 23.2045 10.2449C23.1664 10.2233 23.1279 10.2021 23.0898 10.1809C23.0609 10.1649 23.0323 10.1489 23.0033 10.1333C22.9678 10.1142 22.9319 10.0952 22.896 10.0766C22.8635 10.0597 22.8315 10.0428 22.7986 10.026C22.7662 10.0095 22.7337 9.99351 22.7008 9.9775C22.664 9.95933 22.6277 9.94115 22.5909 9.92384C22.5623 9.91043 22.5338 9.89701 22.5052 9.88403C22.4637 9.86456 22.4221 9.84509 22.3801 9.82648C22.3568 9.8161 22.333 9.80614 22.3096 9.79576C22.262 9.77499 22.2144 9.75422 22.1668 9.73431C22.1495 9.72696 22.1317 9.72003 22.1144 9.71311C22.0599 9.69061 22.0054 9.66854 21.9504 9.64734C21.9405 9.64344 21.9305 9.63998 21.9206 9.63609C21.8578 9.61186 21.7951 9.58806 21.7319 9.56512C21.731 9.56512 21.7306 9.56469 21.7297 9.56426C20.8716 9.25444 19.9546 9.06404 18.9978 9.01385C18.8325 9.00433 18.668 9 18.5031 9C18.5023 9 18.5014 9 18.5006 9C18.3348 9 18.1691 9.00433 18.0033 9.01298C16.4883 9.09217 15.0684 9.52445 13.8238 10.2289C13.8212 10.2306 13.8182 10.2319 13.8152 10.2337C13.7615 10.264 13.7083 10.2951 13.6555 10.3267C13.6443 10.3332 13.633 10.3397 13.6218 10.3466C13.5741 10.3752 13.5274 10.4042 13.4802 10.4331C13.4638 10.4435 13.4474 10.4535 13.4309 10.4639C13.3881 10.4911 13.3457 10.5184 13.3032 10.5461C13.2833 10.5591 13.263 10.5725 13.2431 10.5855C13.2037 10.6114 13.1648 10.6383 13.1258 10.6646C13.1029 10.6802 13.0804 10.6962 13.0574 10.7118C13.0211 10.7373 12.9852 10.7629 12.9493 10.7884C12.9246 10.8061 12.8995 10.8243 12.8748 10.8425C12.8411 10.8672 12.8078 10.8923 12.7744 10.9174C12.748 10.9373 12.7216 10.9576 12.6957 10.9779C12.6645 11.0022 12.6329 11.0264 12.6022 11.0511C12.5741 11.0731 12.5468 11.0956 12.5191 11.1181C12.4901 11.1415 12.4611 11.1653 12.4326 11.1891C12.4031 11.2138 12.3741 11.2384 12.3451 11.2631C12.3187 11.2856 12.2919 11.3081 12.2655 11.331C12.2339 11.3583 12.2028 11.3864 12.172 11.4141C12.1487 11.4353 12.1249 11.4561 12.1015 11.4773C12.066 11.5097 12.0314 11.5422 11.9963 11.5751C11.9777 11.5924 11.9587 11.6097 11.9405 11.6274C11.8873 11.6781 11.8345 11.7296 11.7826 11.7815C11.7306 11.8334 11.6791 11.8862 11.6285 11.9394C11.6108 11.958 11.593 11.9775 11.5753 11.9961C11.5428 12.0307 11.5104 12.0653 11.4783 12.1004C11.4571 12.1238 11.4359 12.1476 11.4147 12.1714C11.387 12.2025 11.3593 12.2332 11.3321 12.2648C11.3091 12.2912 11.2866 12.318 11.2641 12.3444C11.2395 12.3734 11.2144 12.4024 11.1901 12.4318C11.1663 12.4604 11.143 12.4894 11.1196 12.5184C11.0971 12.5461 11.0746 12.5738 11.0525 12.6019C11.0279 12.6331 11.0036 12.6642 10.9798 12.6954C10.9595 12.7218 10.9391 12.7477 10.9192 12.7741C10.8941 12.8074 10.869 12.8412 10.8444 12.8749C10.8262 12.8996 10.8085 12.9243 10.7903 12.9489C10.7643 12.9849 10.7388 13.0208 10.7133 13.0571C10.6972 13.0796 10.6817 13.1021 10.6661 13.1251C10.6393 13.164 10.6129 13.2029 10.5869 13.2423C10.5735 13.2622 10.5605 13.2821 10.5475 13.3025C10.5198 13.3449 10.4921 13.3877 10.4649 13.4305C10.4545 13.447 10.4445 13.4634 10.4341 13.4794C10.4047 13.5266 10.3757 13.5738 10.3471 13.6209C10.3407 13.6322 10.3342 13.6434 10.3272 13.6543C10.2956 13.7075 10.2645 13.7607 10.2342 13.8144C10.2325 13.817 10.2312 13.8196 10.2299 13.8226C9.52406 15.0684 9.09174 16.4881 9.01255 18.003C9.00822 18.0891 9.00476 18.1748 9.0026 18.2609C9.0026 18.2704 9.0026 18.28 9.0026 18.2895C9.00087 18.3635 9 18.4375 9 18.5115C9 18.5405 9.00087 18.5695 9.0013 18.598C9.00173 18.6543 9.0026 18.7109 9.00389 18.7672C9.00476 18.7914 9.00563 18.8152 9.00649 18.839C9.00865 18.9022 9.01125 18.9654 9.01471 19.0281C9.01558 19.0454 9.01688 19.0627 9.01818 19.0805C9.02207 19.1463 9.0264 19.212 9.03202 19.2769C9.03202 19.2791 9.03202 19.2813 9.03246 19.2834C9.12853 20.4496 9.43361 21.5521 9.90791 22.5565C9.91656 22.5746 9.92435 22.5928 9.93301 22.6106C9.94988 22.6456 9.96762 22.6802 9.9845 22.7153C10.0014 22.7495 10.0183 22.7836 10.0356 22.8178C10.0485 22.8429 10.062 22.868 10.0749 22.8931C10.0974 22.936 10.12 22.9792 10.1429 23.0216C10.1533 23.0407 10.1641 23.0597 10.1749 23.0792C10.2013 23.1272 10.2277 23.1752 10.255 23.2224C10.2641 23.238 10.2731 23.2536 10.2822 23.2691C10.3117 23.3198 10.3411 23.37 10.3714 23.4197C10.3796 23.4336 10.3883 23.447 10.3969 23.4608C10.4285 23.5119 10.4601 23.563 10.4921 23.6136C10.5003 23.6266 10.509 23.6396 10.5176 23.6525C10.5505 23.7032 10.5834 23.7538 10.6172 23.804C10.6258 23.817 10.6349 23.8299 10.644 23.8429C10.6778 23.8927 10.712 23.942 10.7466 23.9909C10.7561 24.0043 10.766 24.0177 10.7756 24.0312C10.8098 24.0792 10.8444 24.1268 10.8799 24.174C10.8907 24.1887 10.9019 24.2029 10.9127 24.2172C10.9474 24.2627 10.9816 24.3081 11.017 24.3531C11.0296 24.3691 11.0421 24.3847 11.0547 24.4003C11.0889 24.4431 11.1231 24.4859 11.1577 24.5283C11.172 24.5457 11.1867 24.563 11.2014 24.5803C11.2347 24.6205 11.2685 24.6603 11.3027 24.6997C11.3191 24.7187 11.336 24.7378 11.3524 24.7568C11.3849 24.794 11.4178 24.8308 11.4507 24.8676C11.4697 24.8884 11.4887 24.9091 11.5078 24.9299C11.5389 24.9641 11.5705 24.9978 11.6021 25.0316C11.6238 25.0541 11.6454 25.0766 11.667 25.0991C11.6969 25.1302 11.7272 25.161 11.7575 25.1917C11.7817 25.2159 11.8059 25.2397 11.8302 25.264C11.8587 25.2921 11.8873 25.3198 11.9159 25.3475C11.9427 25.3734 11.97 25.399 11.9972 25.4245C12.024 25.4496 12.0509 25.4747 12.0777 25.4994C12.1076 25.5266 12.1374 25.5534 12.1677 25.5807C12.1928 25.6032 12.2175 25.6253 12.243 25.6473C12.2759 25.6759 12.3088 25.7045 12.3417 25.7326C12.3646 25.7521 12.3876 25.7715 12.4109 25.791C12.4468 25.8209 12.4828 25.8503 12.5187 25.8797C12.5399 25.8966 12.5607 25.9139 12.5819 25.9308C12.6204 25.9615 12.6593 25.9922 12.6987 26.0221C12.7177 26.0368 12.7368 26.0515 12.7563 26.0662C12.7978 26.0978 12.8398 26.129 12.8818 26.1597C12.8991 26.1722 12.9164 26.1852 12.9337 26.1978C12.9783 26.2298 13.0228 26.2618 13.0674 26.2929C13.0825 26.3038 13.0981 26.3142 13.1137 26.325C13.1609 26.3574 13.2085 26.3894 13.2561 26.4215C13.2695 26.4305 13.2833 26.4392 13.2968 26.4483C13.3465 26.4807 13.3967 26.5132 13.4469 26.5448C13.459 26.5521 13.4707 26.5599 13.4828 26.5673C13.5352 26.5997 13.5876 26.6322 13.6408 26.6638C13.6512 26.6698 13.6616 26.6763 13.6719 26.6824C13.7265 26.7148 13.7814 26.7464 13.8368 26.7776C13.8459 26.7828 13.855 26.788 13.8645 26.7932C13.9212 26.8248 13.9779 26.8563 14.0355 26.8866C14.0437 26.891 14.0519 26.8953 14.0597 26.8996C14.1181 26.9308 14.177 26.9611 14.2363 26.9909C14.2432 26.9944 14.2505 26.9978 14.2575 27.0017C14.3176 27.032 14.3782 27.0614 14.4392 27.0904C14.4457 27.0935 14.4522 27.0965 14.4591 27.0995C14.5206 27.1285 14.5825 27.1571 14.6448 27.1848C14.6508 27.1874 14.6573 27.1904 14.6634 27.193C14.7261 27.2207 14.7889 27.2479 14.8525 27.2743C14.8585 27.2769 14.865 27.2795 14.8715 27.2821C14.9347 27.3085 14.9983 27.3341 15.0624 27.3587C15.0693 27.3613 15.0762 27.3639 15.0831 27.3665C15.1468 27.3912 15.2104 27.415 15.2744 27.4379C15.2822 27.4405 15.29 27.4431 15.2978 27.4461C15.3614 27.4691 15.425 27.4911 15.4891 27.5123C15.4981 27.5154 15.5072 27.518 15.5159 27.521C15.5786 27.5418 15.6418 27.5621 15.705 27.5816C15.7167 27.585 15.7279 27.5885 15.7396 27.592C15.8006 27.6106 15.8621 27.6287 15.9235 27.646C15.9383 27.6499 15.9525 27.6538 15.9672 27.6577C16.0261 27.6742 16.085 27.6902 16.1442 27.7053C16.1637 27.7101 16.1832 27.7148 16.2027 27.7196C16.2572 27.733 16.3121 27.7469 16.3671 27.7594C16.3957 27.7659 16.4247 27.772 16.4532 27.778C16.4995 27.7884 16.5458 27.7988 16.5921 27.8083C16.6458 27.8191 16.7003 27.8295 16.7544 27.8395C16.7761 27.8434 16.7977 27.8481 16.8198 27.852C17.0526 27.8936 17.2889 27.9269 17.5273 27.9511C17.5325 27.9515 17.5381 27.952 17.5433 27.9524C17.6169 27.9598 17.6909 27.9662 17.7649 27.9719C17.7779 27.9727 17.7904 27.9736 17.8034 27.9745C17.8696 27.9792 17.9362 27.9836 18.0029 27.987C18.0232 27.9879 18.0436 27.9888 18.0635 27.9896C18.1228 27.9922 18.1821 27.9948 18.2413 27.9965C18.269 27.9974 18.2972 27.9974 18.3249 27.9978C18.3764 27.9987 18.4279 27.9996 18.4798 28C18.5166 28 18.5533 27.9996 18.5901 27.9991C18.6325 27.9991 18.675 27.9983 18.7174 27.9974C18.7624 27.9965 18.8074 27.9948 18.8519 27.9931C18.8861 27.9918 18.9199 27.9909 18.9541 27.9892C19.0043 27.9866 19.0545 27.9836 19.1047 27.9805C19.1332 27.9788 19.1614 27.9771 19.1899 27.9753C19.244 27.9714 19.2977 27.9667 19.3518 27.9619C19.376 27.9598 19.4002 27.9576 19.4245 27.9554C19.4812 27.9498 19.5374 27.9437 19.5937 27.9373C19.6149 27.9347 19.6365 27.9325 19.6577 27.9299C19.7157 27.923 19.7737 27.9152 19.8317 27.907C19.8512 27.9044 19.8702 27.9018 19.8897 27.8987C19.9485 27.8901 20.0074 27.8806 20.0658 27.8711C20.084 27.868 20.1022 27.865 20.1203 27.862C20.1796 27.8516 20.2385 27.8408 20.2973 27.8295C20.3146 27.826 20.3319 27.823 20.3493 27.8196C20.4081 27.8079 20.467 27.7958 20.5254 27.7828C20.5427 27.7789 20.5596 27.7754 20.5769 27.7715C20.6353 27.7585 20.6933 27.7447 20.7513 27.7309C20.7686 27.7265 20.7855 27.7226 20.8028 27.7183C20.8603 27.704 20.9175 27.6889 20.9746 27.6737C20.9919 27.669 21.0096 27.6642 21.0269 27.6595C21.0832 27.6439 21.1395 27.6279 21.1953 27.6114C21.2135 27.6062 21.2316 27.6006 21.2494 27.5954C21.3043 27.579 21.3589 27.5617 21.4134 27.5444C21.432 27.5383 21.4506 27.5322 21.4692 27.5262C21.5229 27.5084 21.5761 27.4903 21.6293 27.4721C21.6488 27.4652 21.6683 27.4587 21.6877 27.4518C21.7397 27.4331 21.7916 27.4141 21.8431 27.3951C21.8634 27.3873 21.8838 27.3799 21.9041 27.3721C21.9543 27.3527 22.0045 27.3332 22.0547 27.3129C22.0759 27.3042 22.0971 27.2955 22.1179 27.2869C22.1668 27.267 22.2153 27.2462 22.2633 27.2254C22.2854 27.2159 22.3074 27.2064 22.3291 27.1965C22.3762 27.1757 22.423 27.1549 22.4693 27.1333C22.4922 27.1229 22.5152 27.1121 22.5381 27.1013C22.5831 27.0801 22.6281 27.0584 22.6731 27.0368C22.6969 27.0251 22.7207 27.013 22.7449 27.0013C22.7882 26.9797 22.8315 26.9576 22.8743 26.9355C22.8994 26.9225 22.9241 26.9096 22.9488 26.8961C22.9903 26.8741 23.0319 26.852 23.073 26.8291C23.0989 26.8148 23.1245 26.8005 23.15 26.7858C23.1898 26.7633 23.2296 26.7408 23.269 26.7179C23.2954 26.7023 23.3222 26.6867 23.3486 26.6707C23.3867 26.6482 23.4244 26.6253 23.462 26.6023C23.4893 26.5855 23.5165 26.5682 23.5438 26.5513C23.5802 26.5283 23.6161 26.5058 23.652 26.4825C23.6801 26.4643 23.7078 26.4457 23.7359 26.4275C23.7706 26.4046 23.8052 26.3817 23.8398 26.3583C23.8684 26.3388 23.8969 26.3189 23.9251 26.299C23.9579 26.2761 23.9913 26.2531 24.0242 26.2293C24.0531 26.2086 24.0821 26.1869 24.1111 26.1657C24.1427 26.1428 24.1743 26.1194 24.2055 26.0961C24.2353 26.0736 24.2643 26.0511 24.2938 26.0281C24.3236 26.0052 24.3539 25.9818 24.3833 25.9585C24.4132 25.9347 24.4431 25.9104 24.4729 25.8866C24.5015 25.8637 24.53 25.8408 24.5586 25.817C24.5889 25.7919 24.6187 25.7663 24.6486 25.7408C24.6759 25.7179 24.7031 25.6945 24.7304 25.6711C24.7607 25.6447 24.7905 25.6179 24.8208 25.5911C24.8468 25.5677 24.8732 25.5448 24.8987 25.5214C24.929 25.4937 24.9589 25.4656 24.9887 25.4379C25.0138 25.4145 25.0389 25.3916 25.0636 25.3678C25.0939 25.3388 25.1233 25.3094 25.1532 25.2804C25.177 25.257 25.2012 25.2337 25.225 25.2103C25.2549 25.1804 25.2839 25.1502 25.3133 25.1199C25.3362 25.0961 25.3596 25.0727 25.3825 25.0489C25.4115 25.0182 25.4401 24.9875 25.4687 24.9563C25.4912 24.9321 25.5141 24.9078 25.5362 24.8836C25.5639 24.8533 25.5911 24.8222 25.6184 24.791C25.6409 24.7655 25.6638 24.7404 25.6863 24.7144C25.7106 24.6863 25.7339 24.6577 25.7582 24.6296C25.8659 24.5024 25.9702 24.3721 26.0715 24.2389C26.0836 24.2224 26.0966 24.2068 26.1087 24.1904C26.1403 24.148 26.1714 24.1051 26.2022 24.0623C26.2152 24.0441 26.2286 24.0268 26.2416 24.0087C26.2723 23.9658 26.3021 23.9221 26.332 23.8788C26.3445 23.8607 26.3575 23.8425 26.3701 23.8239C26.3999 23.7797 26.4289 23.7352 26.4584 23.6906C26.47 23.6724 26.4826 23.6543 26.4943 23.6361C26.5233 23.5907 26.5518 23.5452 26.58 23.4994C26.5912 23.4812 26.6025 23.4634 26.6137 23.4453C26.6418 23.399 26.6695 23.3522 26.6972 23.3051C26.7076 23.2873 26.7184 23.2691 26.7288 23.2514C26.7565 23.2038 26.7834 23.1558 26.8098 23.1077C26.8197 23.09 26.8297 23.0727 26.8392 23.055C26.866 23.0065 26.8915 22.9572 26.9175 22.9078C26.9266 22.8901 26.9361 22.8728 26.9452 22.855C26.9707 22.8053 26.9958 22.7551 27.0209 22.7049C27.0296 22.6876 27.0382 22.6703 27.0469 22.653C27.0716 22.6023 27.0958 22.5508 27.1196 22.4998C27.1278 22.4825 27.136 22.4652 27.1438 22.4479C27.1676 22.3959 27.1906 22.344 27.2135 22.2916C27.2209 22.2748 27.2287 22.2579 27.236 22.2406C27.2585 22.1878 27.2806 22.1346 27.3022 22.0814C27.3091 22.0645 27.3161 22.0472 27.323 22.0303C27.3446 21.9766 27.365 21.923 27.3857 21.8689C27.3922 21.8516 27.3987 21.8347 27.4052 21.8174C27.4256 21.7633 27.445 21.7084 27.4641 21.6538C27.4701 21.6365 27.4762 21.6196 27.4822 21.6023C27.5013 21.5474 27.5195 21.4924 27.5372 21.437C27.5428 21.4197 27.5489 21.402 27.5541 21.3847C27.5718 21.3293 27.5887 21.2739 27.6051 21.2185C27.6103 21.2008 27.616 21.1826 27.6212 21.1649C27.6372 21.1095 27.6527 21.0537 27.6683 20.9978C27.6735 20.9792 27.6783 20.9611 27.6835 20.9424C27.6982 20.8871 27.7125 20.8312 27.7259 20.7754C27.7306 20.7559 27.7354 20.7365 27.7402 20.7174C27.7536 20.6621 27.7661 20.6067 27.7782 20.5508C27.7826 20.5305 27.7873 20.5102 27.7917 20.4898C27.8033 20.4349 27.8146 20.3799 27.8254 20.3245C27.8297 20.3029 27.8336 20.2813 27.838 20.2596C27.8483 20.2055 27.8579 20.151 27.867 20.0961C27.8708 20.0731 27.8747 20.0502 27.8782 20.0268C27.8869 19.9736 27.8951 19.9199 27.9029 19.8663C27.9063 19.8416 27.9098 19.8165 27.9133 19.7919C27.9202 19.7399 27.9271 19.6876 27.9332 19.6352C27.9362 19.6084 27.9397 19.5811 27.9423 19.5539C27.9479 19.5037 27.9531 19.4531 27.9578 19.4024C27.9604 19.3726 27.963 19.3427 27.9656 19.3133C27.9695 19.2653 27.9734 19.2168 27.9769 19.1688C27.979 19.1359 27.9812 19.103 27.9829 19.0701C27.9855 19.0247 27.9881 18.9792 27.9903 18.9334C27.992 18.8966 27.9933 18.8602 27.9946 18.8235C27.9959 18.7815 27.9972 18.7391 27.9981 18.6967C27.9989 18.6556 27.9994 18.6145 27.9998 18.5733C27.9998 18.5353 28.0002 18.4972 27.9998 18.4591C27.9998 18.4137 27.9989 18.3682 27.9981 18.3232H27.9985ZM18.7139 11.312C18.7312 11.2778 18.7741 11.2453 18.8113 11.2341C19.0623 11.1584 19.897 11.4743 20.2324 11.5223C21.3472 11.6815 22.5169 11.3799 23.4447 12.2821C23.752 12.5811 24.0501 13.2756 23.346 13.1575C23.1478 13.1242 22.3014 12.5314 22.4074 13.1445C22.4879 13.6097 23.7965 13.6404 24.1535 14.1207C24.7507 14.9243 23.5789 16.6975 22.6489 15.582C22.3702 15.2479 21.9227 13.7979 21.2836 14.3103C20.827 14.6763 21.5298 15.3881 21.5847 15.7391C21.7064 16.5171 20.8681 16.8862 20.2069 16.685C19.318 16.4145 19.0869 15.2497 19.1267 14.4418C19.164 13.6833 19.5876 12.8875 19.2358 12.1731C19.1389 11.9766 18.6321 11.4725 18.7139 11.3116V11.312ZM18.7918 26.2389C17.7649 26.5387 15.6635 26.0074 14.7214 25.495C13.43 24.7927 11.8176 22.8853 11.8297 21.3496C11.8319 21.0909 11.9764 20.8386 12.2396 21.026C12.5645 21.2579 12.9609 22.0731 13.3175 22.4089C13.9203 22.9762 13.9757 22.2601 14.2401 21.817C15.2948 20.0498 15.1944 23.0913 15.454 23.3812C15.5743 23.5154 15.8552 23.4124 16.0084 23.3691C16.3455 23.2739 17.4719 22.7408 17.7454 22.9031C17.9834 23.0446 17.5913 23.7646 17.4935 23.9472C17.375 24.1675 16.9509 24.6521 17.0197 24.8806C17.0725 25.055 17.6809 25.3444 17.8592 25.4232C18.0509 25.508 18.8719 25.7547 18.9424 25.8286C19.0739 25.9662 18.9722 26.1861 18.7922 26.2389H18.7918ZM22.2746 25.4474C22.0954 25.5612 21.5103 25.9299 21.3286 25.8399C21.0875 25.7209 21.4917 25.3362 21.5787 25.1835C22.5299 23.5136 21.287 22.3622 19.9433 21.5257C17.3672 19.9221 11.8306 17.9022 12.8536 13.955C13.2137 12.566 14.8317 11.0762 16.2663 10.8918C16.4684 10.8659 16.741 10.8572 16.6012 11.1398C16.5653 11.2125 16.1676 11.4293 16.065 11.5102C14.9858 12.3613 14.4392 13.5941 15.132 14.8961C16.2896 17.0705 20.5072 18.5093 22.4901 20.0593C24.5634 21.6802 24.5183 24.0221 22.275 25.4479L22.2746 25.4474Z" fill="#FDFDFE"/>
</g>
</g>
</g>
</svg>
